<svg width="22" height="20" viewBox="0 0 22 20" fill="none" xmlns="http://www.w3.org/2000/svg">
<path d="M9.95 13.55L15.6 7.9L14.175 6.475L9.95 10.7L7.85 8.6L6.425 10.025L9.95 13.55ZM11 20C8.68333 19.4167 6.77083 18.0875 5.2625 16.0125C3.75417 13.9375 3 11.6333 3 9.1V3L11 0L19 3V9.1C19 11.6333 18.2458 13.9375 16.7375 16.0125C15.2292 18.0875 13.3167 19.4167 11 20ZM11 17.9C12.7333 17.35 14.1667 16.25 15.3 14.6C16.4333 12.95 17 11.1167 17 9.1V4.375L11 2.125L5 4.375V9.1C5 11.1167 5.56667 12.95 6.7 14.6C7.83333 16.25 9.26667 17.35 11 17.9Z" fill="#475569"/>
</svg>
